<svg xmlns="http://www.w3.org/2000/svg" width="36" height="36" viewBox="0 0 36 36" class="img_svg">
                                    <defs>
                                        <path id="textDelBtnSvg" d="M20 2C10.059 2 2 10.059 2 20s8.059 18 18 18 18-8.059 18-18S29.941 2 20 2zm8 24.6L26.6 28 20 21.4 13.4 28 12 26.6l6.6-6.6-6.6-6.6 1.4-1.4 6.6 6.6 6.6-6.6 1.4 1.4-6.6 6.6 6.6 6.6z"/>
                                    </defs>
                                    <g fill="none" fill-rule="evenodd" transform="translate(-2 -2)">
                                        <path d="M0 0h40v40H0z"/>
                                        <mask id="textDelBtnSvgMask" fill="#fff">
                                            <use xmlns:xlink="http://www.w3.org/1999/xlink" xlink:href="#textDelBtnSvg"/>
                                        </mask>
                                        <g fill="#000" fill-opacity="1" mask="url(#textDelBtnSvgMask)" class="svg_bg">
                                            <path d="M0 0h40v40H0z"/>
                                        </g>
                                    </g>
                                </svg>