<svg xmlns="http://www.w3.org/2000/svg" width="40" height="40" viewBox="0 0 40 40" class="img_svg">
                                                                                <defs>
                                                                                    <path id="errorIconSvg" d="M18.5 27.5a1.5 1.5 0 1 1 3 0 1.5 1.5 0 0 1-3 0zM21 11h-2v13h2V11zm-1-9C10.059 2 2 10.059 2 20s8.059 18 18 18 18-8.059 18-18S29.941 2 20 2zm0 34c-8.837 0-16-7.163-16-16S11.163 4 20 4s16 7.163 16 16a16 16 0 0 1-16 16z"/>
                                                                                </defs>
                                                                                <g fill="none" fill-rule="evenodd">
                                                                                    <path d="M0 0h40v40H0z"/>
                                                                                    <use fill="#fff" fill-rule="nonzero" xmlns:xlink="http://www.w3.org/1999/xlink" xlink:href="#errorIconSvg"/>
                                                                                </g>
                                                                            </svg>